<?xml version="1.0" encoding="UTF-8" standalone="no"?>
<!-- Created with Inkscape (http://www.inkscape.org/) -->

<svg
   width="793.70081"
   height="1122.5197"
   viewBox="0 0 210 297"
   version="1.1"
   id="svg5"
   inkscape:version="1.2.2 (732a01da63, 2022-12-09)"
   sodipodi:docname="applogo.svg"
   xml:space="preserve"
   xmlns:inkscape="http://www.inkscape.org/namespaces/inkscape"
   xmlns:sodipodi="http://sodipodi.sourceforge.net/DTD/sodipodi-0.dtd"
   xmlns:xlink="http://www.w3.org/1999/xlink"
   xmlns="http://www.w3.org/2000/svg"
   xmlns:svg="http://www.w3.org/2000/svg"><sodipodi:namedview
     id="namedview7"
     pagecolor="#505050"
     bordercolor="#ffffff"
     borderopacity="1"
     inkscape:pageshadow="0"
     inkscape:pageopacity="0"
     inkscape:pagecheckerboard="1"
     inkscape:document-units="px"
     showgrid="false"
     units="px"
     inkscape:showpageshadow="false"
     showborder="false"
     inkscape:zoom="0.5"
     inkscape:cx="1327"
     inkscape:cy="706"
     inkscape:window-width="1920"
     inkscape:window-height="1009"
     inkscape:window-x="-8"
     inkscape:window-y="-8"
     inkscape:window-maximized="1"
     inkscape:current-layer="layer1"
     inkscape:deskcolor="#505050" /><defs
     id="defs2"><linearGradient
       inkscape:collect="always"
       id="linearGradient10990"><stop
         style="stop-color:#60c4ff;stop-opacity:1"
         offset="0"
         id="stop10986" /><stop
         style="stop-color:#3c69dc;stop-opacity:1"
         offset="1"
         id="stop10988" /></linearGradient><inkscape:path-effect
       effect="bspline"
       id="path-effect7086"
       is_visible="true"
       lpeversion="1"
       weight="33.333333"
       steps="2"
       helper_size="0"
       apply_no_weight="true"
       apply_with_weight="true"
       only_selected="false" /><inkscape:path-effect
       effect="skeletal"
       id="path-effect6007"
       is_visible="true"
       lpeversion="1"
       pattern="M 0,4.9921382 C 0,2.2364779 2.2364779,0 4.9921382,0 c 2.7556604,0 4.9921383,2.2364779 4.9921383,4.9921382 0,2.7556604 -2.2364779,4.9921383 -4.9921383,4.9921383 C 2.2364779,9.9842765 0,7.7477986 0,4.9921382 Z"
       copytype="single_stretched"
       prop_scale="1.04"
       scale_y_rel="false"
       spacing="0"
       normal_offset="0"
       tang_offset="0"
       prop_units="false"
       vertical_pattern="false"
       hide_knot="false"
       fuse_tolerance="0" /><inkscape:path-effect
       effect="skeletal"
       id="path-effect6003"
       is_visible="true"
       lpeversion="1"
       pattern="M 0,4.9921382 C 0,2.2364779 2.2364779,0 4.9921382,0 c 2.7556604,0 4.9921383,2.2364779 4.9921383,4.9921382 0,2.7556604 -2.2364779,4.9921383 -4.9921383,4.9921383 C 2.2364779,9.9842765 0,7.7477986 0,4.9921382 Z"
       copytype="single_stretched"
       prop_scale="1.04"
       scale_y_rel="false"
       spacing="0"
       normal_offset="0"
       tang_offset="0"
       prop_units="false"
       vertical_pattern="false"
       hide_knot="false"
       fuse_tolerance="0" /><inkscape:path-effect
       effect="skeletal"
       id="path-effect5999"
       is_visible="true"
       lpeversion="1"
       pattern="M 0,4.9921382 C 0,2.2364779 2.2364779,0 4.9921382,0 c 2.7556604,0 4.9921383,2.2364779 4.9921383,4.9921382 0,2.7556604 -2.2364779,4.9921383 -4.9921383,4.9921383 C 2.2364779,9.9842765 0,7.7477986 0,4.9921382 Z"
       copytype="single_stretched"
       prop_scale="1.04"
       scale_y_rel="false"
       spacing="0"
       normal_offset="0"
       tang_offset="0"
       prop_units="false"
       vertical_pattern="false"
       hide_knot="false"
       fuse_tolerance="0" /><inkscape:path-effect
       effect="powerstroke"
       id="path-effect5747"
       is_visible="true"
       lpeversion="1"
       offset_points="0.56241445,2.80633"
       not_jump="true"
       sort_points="true"
       interpolator_type="CentripetalCatmullRom"
       interpolator_beta="0.75"
       start_linecap_type="round"
       linejoin_type="spiro"
       miter_limit="4"
       scale_width="1"
       end_linecap_type="round" /><inkscape:path-effect
       effect="simplify"
       id="path-effect5745"
       is_visible="true"
       lpeversion="1"
       steps="1"
       threshold="0.028846154"
       smooth_angles="0"
       helper_size="0"
       simplify_individual_paths="false"
       simplify_just_coalesce="false"
       step="1" /><inkscape:path-effect
       effect="powerstroke"
       id="path-effect5740"
       is_visible="true"
       lpeversion="1"
       offset_points="0.507191,2.80633"
       not_jump="true"
       sort_points="true"
       interpolator_type="CentripetalCatmullRom"
       interpolator_beta="0.75"
       start_linecap_type="round"
       linejoin_type="spiro"
       miter_limit="4"
       scale_width="1"
       end_linecap_type="round" /><inkscape:path-effect
       effect="simplify"
       id="path-effect5738"
       is_visible="true"
       lpeversion="1"
       steps="1"
       threshold="0.028846154"
       smooth_angles="0"
       helper_size="0"
       simplify_individual_paths="false"
       simplify_just_coalesce="false"
       step="1" /><linearGradient
       inkscape:collect="always"
       xlink:href="#linearGradient10990"
       id="linearGradient10992"
       x1="190.83044"
       y1="44.152927"
       x2="189.70792"
       y2="278.38794"
       gradientUnits="userSpaceOnUse" /><linearGradient
       inkscape:collect="always"
       xlink:href="#linearGradient10990"
       id="linearGradient21097"
       gradientUnits="userSpaceOnUse"
       x1="190.83044"
       y1="44.152927"
       x2="189.70792"
       y2="278.38794"
       gradientTransform="matrix(1.0866775,0,0,1.0866775,266.66036,-13.912727)" /></defs><g
     inkscape:label="Layer 1"
     inkscape:groupmode="layer"
     id="layer1"><rect
       style="fill:url(#linearGradient10992);fill-opacity:1;stroke:#1c358b;stroke-width:18.52083338;stroke-linecap:round;stroke-linejoin:miter;stroke-dasharray:none;stroke-opacity:1;paint-order:fill markers stroke"
       id="rect7785"
       width="231.98996"
       height="231.98996"
       x="79.82206"
       y="44.516239"
       ry="62.861794" /><g
       id="g7731"
       transform="translate(71.423488,-4.8119207)"><rect
         style="fill:#f47d05;fill-opacity:1;stroke:none;stroke-width:7.9375;stroke-linecap:round;stroke-linejoin:round;stroke-dasharray:none;paint-order:fill markers stroke"
         id="rect297"
         width="107.72429"
         height="52.161789"
         x="67.44931"
         y="174.34097"
         ry="22.457838" /><path
         id="path3558"
         style="fill:#ffffff;fill-opacity:1;stroke:none;stroke-width:7.9375;stroke-linecap:round;stroke-linejoin:miter;stroke-dasharray:none;stroke-opacity:1;paint-order:fill markers stroke"
         d="m 123.5723,104.14351 c -7.08455,0.003 -13.64124,3.71874 -17.24546,9.77408 -3.55043,-2.81442 -7.958755,-4.34758 -12.502076,-4.34805 -11.067822,7e-5 -20.377182,11.29614 -20.227209,21.01847 0.161519,10.47082 5.084045,21.28855 22.472273,21.95393 l 1.032256,4.62056 c 16.760116,-7.875 32.575366,-7.34317 47.624996,0 v 0 c 0.58581,0.0548 -0.58839,-0.003 0,0 11.71975,1.14079 25.06459,-10.69788 23.76806,-23.95513 2.2e-4,-10.9884 -8.97209,-19.89639 -20.04012,-19.89646 -2.46806,10e-4 -4.91464,0.45525 -7.21661,1.33894 -3.48733,-6.46783 -10.27674,-10.50561 -17.66611,-10.50634 z"
         sodipodi:nodetypes="cccaccccccccc" /><path
         style="fill:#ffffff;fill-opacity:1;stroke:#000000;stroke-width:7.9375;stroke-linecap:butt;stroke-linejoin:miter;stroke-dasharray:none;stroke-opacity:1"
         d="M 97.323891,174.36041 V 157.1625 c 18.281049,-6.61663 34.963679,-8.8376 47.624999,0 v 16.66875 z"
         id="path1019"
         sodipodi:nodetypes="ccccc" /><path
         id="path5997"
         style="fill:#cccccc;stroke:none;stroke-width:0.264583px;stroke-linecap:butt;stroke-linejoin:miter;stroke-opacity:1"
         d="m 78.961189,120.35389 c -2.045239,1.99361 -3.904144,5.04915 -4.318083,9.0749 -0.224886,3.23966 0.490463,6.54428 2.123385,9.45731 1.599987,2.90696 3.811828,5.44161 6.451286,7.47138 0.569575,0.44757 1.159428,0.87647 1.768367,1.28467 5.715806,3.83159 12.137804,5.22938 17.843876,4.79454 4.11592,-0.31583 7.62723,-1.66437 10.29498,-3.38687 0.59692,-0.39149 1.14077,-0.78758 1.63762,-1.18443 0.27984,1.18089 0.80455,2.50541 1.6769,3.8375 8.01631,-0.7909 15.81454,0.35951 23.41666,3.25354 0.67992,-0.48098 1.31213,-0.99763 1.88619,-1.54305 0.82233,1.2138 2.06746,2.58069 3.83284,3.79666 9.2817,0.53854 19.39212,-6.86296 22.36246,-16.53956 -0.19137,-1.26602 -1.04563,-3.10349 -1.39423,-2.41225 -7.16262,14.2026 -20.24686,8.82014 -18.70854,3.55488 -2.69076,8.30573 -31.09755,4.59377 -31.24373,-9.1671 -13.68029,15.93057 -46.015272,6.30707 -24.695707,-18.70902 0.352387,-0.41349 -7.326418,-1.31024 -6.412451,-0.46659 0,0 -2.885305,3.40815 -6.521823,6.88349 z"
         sodipodi:nodetypes="ccccsccccccccsccssc" /><path
         id="path6068"
         style="fill:none;fill-opacity:1;stroke:#000000;stroke-width:7.9375;stroke-linecap:round;stroke-linejoin:miter;stroke-dasharray:none;stroke-opacity:1;paint-order:fill markers stroke"
         d="m 123.79411,104.14351 c -7.08455,0.003 -13.64124,3.71874 -17.24546,9.77408 -3.55043,-2.81442 -7.958756,-4.34758 -12.502077,-4.34805 -11.067822,7e-5 -20.377182,11.29614 -20.227209,21.01847 0.161519,10.47082 5.084045,21.28855 22.472273,21.95393 l 1.032256,4.62056 c 16.760117,-7.875 32.575367,-7.34317 47.624997,0 v 0 c 0.58581,0.0548 -0.58839,-0.003 0,0 11.71975,1.14079 25.06459,-10.69788 23.76806,-23.95513 2.2e-4,-10.9884 -8.97209,-19.89639 -20.04012,-19.89646 -2.46806,10e-4 -4.91464,0.45525 -7.21661,1.33894 -3.48733,-6.46783 -10.27674,-10.50561 -17.66611,-10.50634 z"
         sodipodi:nodetypes="cccaccccccccc" /><path
         style="fill:#cccccc;fill-opacity:1;stroke:none;stroke-width:0.264583px;stroke-linecap:butt;stroke-linejoin:miter;stroke-opacity:1"
         d="m 98.034461,154.90941 0.374179,17.77343 13.84456,1.30962 c -3.69287,-5.31294 -4.87265,-11.60319 0.37417,-20.39267 z"
         id="path6165"
         sodipodi:nodetypes="ccccc" /><path
         style="fill:none;fill-opacity:1;stroke:#000000;stroke-width:7.9375;stroke-linecap:butt;stroke-linejoin:miter;stroke-dasharray:none;stroke-opacity:1"
         d="M 97.323891,174.36041 V 157.1625 c 18.281049,-6.61663 34.963679,-8.8376 47.624999,0 v 16.66875 z"
         id="path6236"
         sodipodi:nodetypes="ccccc" /><path
         style="fill:#000000;stroke:#000000;stroke-width:3.96875;stroke-linecap:butt;stroke-linejoin:miter;stroke-dasharray:none;stroke-opacity:1"
         d="m 175.11499,201.68158 c 1.9285,10.083 -0.9338,16.55667 5.05139,22.63773 l -9.54152,-0.74835 c 5.78901,-6.93877 4.35184,-14.47972 4.49013,-21.88938 z"
         id="path6238"
         sodipodi:nodetypes="cccc" /><g
         id="g6254"
         transform="translate(-1.0289993,-0.84189606)"><circle
           style="fill:#cccccc;fill-opacity:1;stroke:none;stroke-width:7.46503;stroke-linecap:round;stroke-linejoin:miter;stroke-dasharray:none;stroke-opacity:1;paint-order:fill markers stroke"
           id="path6070"
           cx="87.72905"
           cy="201.26376"
           r="7.3900027" /><circle
           style="fill:#cccccc;fill-opacity:1;stroke:none;stroke-width:7.46503;stroke-linecap:round;stroke-linejoin:miter;stroke-dasharray:none;stroke-opacity:1;paint-order:fill markers stroke"
           id="circle6244"
           cx="156.95186"
           cy="201.26376"
           r="7.3900027" /><circle
           style="fill:#cccccc;fill-opacity:1;stroke:none;stroke-width:7.46503;stroke-linecap:round;stroke-linejoin:miter;stroke-dasharray:none;stroke-opacity:1;paint-order:fill markers stroke"
           id="circle6246"
           cx="133.87759"
           cy="201.26376"
           r="7.3900027" /><circle
           style="fill:#cccccc;fill-opacity:1;stroke:none;stroke-width:7.46503;stroke-linecap:round;stroke-linejoin:miter;stroke-dasharray:none;stroke-opacity:1;paint-order:fill markers stroke"
           id="circle6248"
           cx="110.80332"
           cy="201.26376"
           r="7.3900027" /></g><path
         id="path7084"
         style="fill:#c23600;fill-opacity:1;stroke:none;stroke-width:0.264583px;stroke-linecap:butt;stroke-linejoin:miter;stroke-opacity:1"
         d="m 69.022144,198.39564 c -0.08902,-0.011 -0.172764,0.031 -0.252698,0.13023 -0.639472,0.79375 -1.036207,5.24761 0.485242,12.65607 0.103359,0.5033 0.21789,1.02217 0.339514,1.5503 3.589858,7.6052 11.315854,12.84469 20.312972,12.84469 h 62.808566 c 3.84216,0 12.21413,-5.72043 15.37012,-7.4073 -15.60414,2.60288 -49.53766,2.92581 -75.282739,-0.59376 -15.809205,-2.29294 -18.71958,-8.20172 -20.615796,-12.58941 -1.659189,-3.83924 -2.542054,-6.51396 -3.165181,-6.59082 z"
         sodipodi:nodetypes="ssscssccss" /><rect
         style="fill:none;fill-opacity:1;stroke:#000000;stroke-width:7.9375;stroke-linecap:round;stroke-linejoin:round;stroke-dasharray:none;paint-order:fill markers stroke"
         id="rect7093"
         width="107.72429"
         height="52.161789"
         x="67.44931"
         y="174.34097"
         ry="22.457838" /></g><rect
       style="fill:url(#linearGradient21097);fill-opacity:1;stroke:#1c358b;stroke-width:20.1261;stroke-linecap:round;stroke-linejoin:miter;stroke-dasharray:none;stroke-opacity:1;paint-order:fill markers stroke"
       id="rect21063"
       width="252.0983"
       height="252.0983"
       x="353.40121"
       y="34.462074"
       ry="126.04916"
       inkscape:export-filename="appicon_circle.png"
       inkscape:export-xdpi="95.544701"
       inkscape:export-ydpi="95.544701" /><g
       id="g21095"
       transform="translate(355.05682,-4.8119207)"><rect
         style="fill:#f47d05;fill-opacity:1;stroke:none;stroke-width:7.9375;stroke-linecap:round;stroke-linejoin:round;stroke-dasharray:none;paint-order:fill markers stroke"
         id="rect21065"
         width="107.72429"
         height="52.161789"
         x="67.44931"
         y="174.34097"
         ry="22.457838" /><path
         id="path21067"
         style="fill:#ffffff;fill-opacity:1;stroke:none;stroke-width:7.9375;stroke-linecap:round;stroke-linejoin:miter;stroke-dasharray:none;stroke-opacity:1;paint-order:fill markers stroke"
         d="m 123.5723,104.14351 c -7.08455,0.003 -13.64124,3.71874 -17.24546,9.77408 -3.55043,-2.81442 -7.958755,-4.34758 -12.502076,-4.34805 -11.067822,7e-5 -20.377182,11.29614 -20.227209,21.01847 0.161519,10.47082 5.084045,21.28855 22.472273,21.95393 l 1.032256,4.62056 c 16.760116,-7.875 32.575366,-7.34317 47.624996,0 v 0 c 0.58581,0.0548 -0.58839,-0.003 0,0 11.71975,1.14079 25.06459,-10.69788 23.76806,-23.95513 2.2e-4,-10.9884 -8.97209,-19.89639 -20.04012,-19.89646 -2.46806,10e-4 -4.91464,0.45525 -7.21661,1.33894 -3.48733,-6.46783 -10.27674,-10.50561 -17.66611,-10.50634 z"
         sodipodi:nodetypes="cccaccccccccc" /><path
         style="fill:#ffffff;fill-opacity:1;stroke:#000000;stroke-width:7.9375;stroke-linecap:butt;stroke-linejoin:miter;stroke-dasharray:none;stroke-opacity:1"
         d="M 97.323891,174.36041 V 157.1625 c 18.281049,-6.61663 34.963679,-8.8376 47.624999,0 v 16.66875 z"
         id="path21069"
         sodipodi:nodetypes="ccccc" /><path
         id="path21071"
         style="fill:#cccccc;stroke:none;stroke-width:0.264583px;stroke-linecap:butt;stroke-linejoin:miter;stroke-opacity:1"
         d="m 78.961189,120.35389 c -2.045239,1.99361 -3.904144,5.04915 -4.318083,9.0749 -0.224886,3.23966 0.490463,6.54428 2.123385,9.45731 1.599987,2.90696 3.811828,5.44161 6.451286,7.47138 0.569575,0.44757 1.159428,0.87647 1.768367,1.28467 5.715806,3.83159 12.137804,5.22938 17.843876,4.79454 4.11592,-0.31583 7.62723,-1.66437 10.29498,-3.38687 0.59692,-0.39149 1.14077,-0.78758 1.63762,-1.18443 0.27984,1.18089 0.80455,2.50541 1.6769,3.8375 8.01631,-0.7909 15.81454,0.35951 23.41666,3.25354 0.67992,-0.48098 1.31213,-0.99763 1.88619,-1.54305 0.82233,1.2138 2.06746,2.58069 3.83284,3.79666 9.2817,0.53854 19.39212,-6.86296 22.36246,-16.53956 -0.19137,-1.26602 -1.04563,-3.10349 -1.39423,-2.41225 -7.16262,14.2026 -20.24686,8.82014 -18.70854,3.55488 -2.69076,8.30573 -31.09755,4.59377 -31.24373,-9.1671 -13.68029,15.93057 -46.015272,6.30707 -24.695707,-18.70902 0.352387,-0.41349 -7.326418,-1.31024 -6.412451,-0.46659 0,0 -2.885305,3.40815 -6.521823,6.88349 z"
         sodipodi:nodetypes="ccccsccccccccsccssc" /><path
         id="path21073"
         style="fill:none;fill-opacity:1;stroke:#000000;stroke-width:7.9375;stroke-linecap:round;stroke-linejoin:miter;stroke-dasharray:none;stroke-opacity:1;paint-order:fill markers stroke"
         d="m 123.79411,104.14351 c -7.08455,0.003 -13.64124,3.71874 -17.24546,9.77408 -3.55043,-2.81442 -7.958756,-4.34758 -12.502077,-4.34805 -11.067822,7e-5 -20.377182,11.29614 -20.227209,21.01847 0.161519,10.47082 5.084045,21.28855 22.472273,21.95393 l 1.032256,4.62056 c 16.760117,-7.875 32.575367,-7.34317 47.624997,0 v 0 c 0.58581,0.0548 -0.58839,-0.003 0,0 11.71975,1.14079 25.06459,-10.69788 23.76806,-23.95513 2.2e-4,-10.9884 -8.97209,-19.89639 -20.04012,-19.89646 -2.46806,10e-4 -4.91464,0.45525 -7.21661,1.33894 -3.48733,-6.46783 -10.27674,-10.50561 -17.66611,-10.50634 z"
         sodipodi:nodetypes="cccaccccccccc" /><path
         style="fill:#cccccc;fill-opacity:1;stroke:none;stroke-width:0.264583px;stroke-linecap:butt;stroke-linejoin:miter;stroke-opacity:1"
         d="m 98.034461,154.90941 0.374179,17.77343 13.84456,1.30962 c -3.69287,-5.31294 -4.87265,-11.60319 0.37417,-20.39267 z"
         id="path21075"
         sodipodi:nodetypes="ccccc" /><path
         style="fill:none;fill-opacity:1;stroke:#000000;stroke-width:7.9375;stroke-linecap:butt;stroke-linejoin:miter;stroke-dasharray:none;stroke-opacity:1"
         d="M 97.323891,174.36041 V 157.1625 c 18.281049,-6.61663 34.963679,-8.8376 47.624999,0 v 16.66875 z"
         id="path21077"
         sodipodi:nodetypes="ccccc" /><path
         style="fill:#000000;stroke:#000000;stroke-width:3.96875;stroke-linecap:butt;stroke-linejoin:miter;stroke-dasharray:none;stroke-opacity:1"
         d="m 175.11499,201.68158 c 1.9285,10.083 -0.9338,16.55667 5.05139,22.63773 l -9.54152,-0.74835 c 5.78901,-6.93877 4.35184,-14.47972 4.49013,-21.88938 z"
         id="path21079"
         sodipodi:nodetypes="cccc" /><g
         id="g21089"
         transform="translate(-1.0289993,-0.84189606)"><circle
           style="fill:#cccccc;fill-opacity:1;stroke:none;stroke-width:7.46503;stroke-linecap:round;stroke-linejoin:miter;stroke-dasharray:none;stroke-opacity:1;paint-order:fill markers stroke"
           id="circle21081"
           cx="87.72905"
           cy="201.26376"
           r="7.3900027" /><circle
           style="fill:#cccccc;fill-opacity:1;stroke:none;stroke-width:7.46503;stroke-linecap:round;stroke-linejoin:miter;stroke-dasharray:none;stroke-opacity:1;paint-order:fill markers stroke"
           id="circle21083"
           cx="156.95186"
           cy="201.26376"
           r="7.3900027" /><circle
           style="fill:#cccccc;fill-opacity:1;stroke:none;stroke-width:7.46503;stroke-linecap:round;stroke-linejoin:miter;stroke-dasharray:none;stroke-opacity:1;paint-order:fill markers stroke"
           id="circle21085"
           cx="133.87759"
           cy="201.26376"
           r="7.3900027" /><circle
           style="fill:#cccccc;fill-opacity:1;stroke:none;stroke-width:7.46503;stroke-linecap:round;stroke-linejoin:miter;stroke-dasharray:none;stroke-opacity:1;paint-order:fill markers stroke"
           id="circle21087"
           cx="110.80332"
           cy="201.26376"
           r="7.3900027" /></g><path
         id="path21091"
         style="fill:#c23600;fill-opacity:1;stroke:none;stroke-width:0.264583px;stroke-linecap:butt;stroke-linejoin:miter;stroke-opacity:1"
         d="m 69.022144,198.39564 c -0.08902,-0.011 -0.172764,0.031 -0.252698,0.13023 -0.639472,0.79375 -1.036207,5.24761 0.485242,12.65607 0.103359,0.5033 0.21789,1.02217 0.339514,1.5503 3.589858,7.6052 11.315854,12.84469 20.312972,12.84469 h 62.808566 c 3.84216,0 12.21413,-5.72043 15.37012,-7.4073 -15.60414,2.60288 -49.53766,2.92581 -75.282739,-0.59376 -15.809205,-2.29294 -18.71958,-8.20172 -20.615796,-12.58941 -1.659189,-3.83924 -2.542054,-6.51396 -3.165181,-6.59082 z"
         sodipodi:nodetypes="ssscssccss" /><rect
         style="fill:none;fill-opacity:1;stroke:#000000;stroke-width:7.9375;stroke-linecap:round;stroke-linejoin:round;stroke-dasharray:none;paint-order:fill markers stroke"
         id="rect21093"
         width="107.72429"
         height="52.161789"
         x="67.44931"
         y="174.34097"
         ry="22.457838" /></g></g></svg>
